<?xml version="1.0"?>
<svg xmlns="http://www.w3.org/2000/svg" id="Layer_5" enable-background="new 0 0 64 64" height="512px" viewBox="0 0 64 64" width="512px" class=""><g><path d="m12 40h-2v12h1.382l-3.382 6.764-3.382-6.764h1.382v-20h-2v18h-2.618l6.618 13.236 6.618-13.236h-2.618z" data-original="#000000" class="active-path" data-old_color="#000000" fill="#FFFFFF"/><path d="m10 36h2v2h-2z" data-original="#000000" class="active-path" data-old_color="#000000" fill="#FFFFFF"/><path d="m10 32h2v2h-2z" data-original="#000000" class="active-path" data-old_color="#000000" fill="#FFFFFF"/><path d="m49.382 43h2.618v12h2v-14h-1.382l3.382-6.764 3.382 6.764h-1.382v22h2v-20h2.618l-6.618-13.236z" data-original="#000000" class="active-path" data-old_color="#000000" fill="#FFFFFF"/><path d="m52 57h2v2h-2z" data-original="#000000" class="active-path" data-old_color="#000000" fill="#FFFFFF"/><path d="m52 61h2v2h-2z" data-original="#000000" class="active-path" data-old_color="#000000" fill="#FFFFFF"/><path d="m41 57h2v2h-2z" data-original="#000000" class="active-path" data-old_color="#000000" fill="#FFFFFF"/><path d="m37 57h2v2h-2z" data-original="#000000" class="active-path" data-old_color="#000000" fill="#FFFFFF"/><path d="m33 57h2v2h-2z" data-original="#000000" class="active-path" data-old_color="#000000" fill="#FFFFFF"/><path d="m33 53h10v2h-10z" data-original="#000000" class="active-path" data-old_color="#000000" fill="#FFFFFF"/><path d="m44 37h-7-10-7c-1.654 0-3 1.346-3 3v20c0 1.654 1.346 3 3 3h24c1.654 0 3-1.346 3-3v-20c0-1.654-1.346-3-3-3zm-9 2v4h-6v-4zm10 21c0 .552-.448 1-1 1h-24c-.552 0-1-.448-1-1v-20c0-.552.448-1 1-1h7v6h10v-6h7c.552 0 1 .448 1 1z" data-original="#000000" class="active-path" data-old_color="#000000" fill="#FFFFFF"/><path d="m32 15c-3.859 0-7 3.141-7 7v3h14v-3c0-3.859-3.141-7-7-7zm5 8h-10v-1c0-2.757 2.243-5 5-5s5 2.243 5 5z" data-original="#000000" class="active-path" data-old_color="#000000" fill="#FFFFFF"/><path d="m42.809 20c-.008-.045-.012-.092-.021-.138l5.487-1.098c2.738-.547 4.725-2.971 4.725-5.764v-1.22l-13.072 2.614c-1.072-1.117-2.374-2.008-3.833-2.595l-1.199-10.799h-5.791l-1.2 10.799c-1.459.588-2.761 1.478-3.833 2.595l-13.072-2.614v1.22c0 2.793 1.988 5.217 4.727 5.765l5.486 1.098c-.009.045-.013.092-.021.138h-20.192v4.771l8.012 2.109c-.001.039-.012.078-.012.119 0 1.654 1.346 3 3 3 1.16 0 2.158-.669 2.656-1.636l2.492.656c.454 1.71 2 2.98 3.852 2.98 1.384 0 2.599-.707 3.318-1.787 3.051 3.167 5.638 4.787 7.682 4.787s4.631-1.62 7.682-4.787c.719 1.08 1.934 1.787 3.318 1.787 1.851 0 3.398-1.27 3.852-2.98l2.492-.656c.498.967 1.496 1.636 2.656 1.636 1.654 0 3-1.346 3-3 0-.041-.011-.08-.012-.121l8.012-2.108v-4.771zm7.979-5.737c-.441 1.271-1.53 2.266-2.906 2.541l-5.669 1.134c-.249-.624-.555-1.217-.909-1.779zm-19.892-11.263h2.209l.91 8.193c-.654-.121-1.326-.193-2.015-.193s-1.361.072-2.015.193zm-14.777 13.804c-1.377-.275-2.466-1.27-2.907-2.541l9.484 1.896c-.354.562-.66 1.155-.909 1.779zm-13.119 6.425v-1.229h18v.337c0 .565.054 1.122.139 1.672-.047-.002-.092-.009-.139-.009-1.842 0-3.381 1.257-3.844 2.954l-2.226-.586c-.291-1.351-1.493-2.368-2.93-2.368-.888 0-1.679.396-2.229 1.011zm9 4.771c-.552 0-1-.448-1-1s.448-1 1-1 1 .448 1 1-.448 1-1 1zm9 2c-1.103 0-2-.897-2-2s.897-2 2-2c.237 0 .465.056.685.137.311.845.727 1.648 1.24 2.398-.235.854-1.01 1.465-1.925 1.465zm17.544-1.482c-2.721 2.89-5.044 4.482-6.544 4.482s-3.823-1.592-6.544-4.482c-1.584-1.683-2.456-3.878-2.456-6.181v-.337c0-4.963 4.037-9 9-9s9 4.037 9 9v.337c0 2.303-.872 4.498-2.456 6.181zm4.456 1.482c-.915 0-1.69-.611-1.925-1.465.513-.75.929-1.554 1.24-2.398.22-.081.448-.137.685-.137 1.103 0 2 .897 2 2s-.897 2-2 2zm9-2c-.552 0-1-.448-1-1s.448-1 1-1 1 .448 1 1-.448 1-1 1zm9-4.771-6.771 1.782c-.55-.615-1.341-1.011-2.229-1.011-1.437 0-2.639 1.017-2.93 2.369l-2.226.586c-.463-1.698-2.002-2.955-3.844-2.955-.046 0-.092.007-.139.009.085-.55.139-1.107.139-1.672v-.337h18z" data-original="#000000" class="active-path" data-old_color="#000000" fill="#FFFFFF"/><path d="m33 27h2v2h-2z" data-original="#000000" class="active-path" data-old_color="#000000" fill="#FFFFFF"/><path d="m29 27h2v2h-2z" data-original="#000000" class="active-path" data-old_color="#000000" fill="#FFFFFF"/></g> </svg>
