<?xml version="1.0"?>
<svg xmlns="http://www.w3.org/2000/svg" id="Layer_5" enable-background="new 0 0 64 64" height="512px" viewBox="0 0 64 64" width="512px"><g><path d="m31 20h2v2h-2z" data-original="#000000" class="active-path" data-old_color="#000000" fill="#FFFFFF"/><path d="m39 20h2v2h-2z" data-original="#000000" class="active-path" data-old_color="#000000" fill="#FFFFFF"/><path d="m35 20h2v2h-2z" data-original="#000000" class="active-path" data-old_color="#000000" fill="#FFFFFF"/><path d="m27 20h2v2h-2z" data-original="#000000" class="active-path" data-old_color="#000000" fill="#FFFFFF"/><path d="m19 20h2v2h-2z" data-original="#000000" class="active-path" data-old_color="#000000" fill="#FFFFFF"/><path d="m15 20h2v2h-2z" data-original="#000000" class="active-path" data-old_color="#000000" fill="#FFFFFF"/><path d="m23 20h2v2h-2z" data-original="#000000" class="active-path" data-old_color="#000000" fill="#FFFFFF"/><path d="m60 33h-18-1-5.017l.889-2h21.996c2.278 0 4.132-1.854 4.132-4.132 0-.749-.204-1.484-.589-2.126-3.605-6.009-10.198-9.742-17.205-9.742h-8.334l-6.222-14h-5.65v14h-13.323l-4-10h-6.677v14.217l.09.197c3.199 7.038 10.262 11.586 17.993 11.586h5.917v2h-7c-1.654 0-3 1.346-3 3v24c0 1.654 1.346 3 3 3h23 1 18c1.654 0 3-1.346 3-3v-24c0-1.654-1.346-3-3-3zm-9 2h4v4h-4zm-21.65 8h-2.35v-16h9.461zm28.314-21h-6.664c-2.967 0-5.431-2.167-5.91-5h.115c4.673 0 9.137 1.847 12.459 5zm-30.664-19h2.35l5.333 12h-7.683zm-20.677 4 3.2 8h-6.523v-8zm12.76 22c-6.878 0-13.167-4.004-16.083-10.22v-1.78h40.069c.495 3.94 3.859 7 7.931 7h8.476c.438.563.849 1.151 1.22 1.77.199.332.304.711.304 1.098 0 1.175-.957 2.132-2.132 2.132h-21.107l1.778-4h-14.539v4zm-2.083 31v-9h14v10h-13c-.551 0-1-.449-1-1zm24 1h-8v-12h-16v-13c0-.551.449-1 1-1h7v10h5.65l4.444-10h5.906 1c.551 0 1 .449 1 1v24c0 .551-.449 1-1 1zm20-1c0 .551-.449 1-1 1h-15.184c.112-.314.184-.648.184-1v-24c0-.352-.072-.686-.184-1h4.184v6h8v-6h3c.551 0 1 .449 1 1z" data-original="#000000" class="active-path" data-old_color="#000000" fill="#FFFFFF"/><path d="m27 57h2v2h-2z" data-original="#000000" class="active-path" data-old_color="#000000" fill="#FFFFFF"/><path d="m19 57h6v2h-6z" data-original="#000000" class="active-path" data-old_color="#000000" fill="#FFFFFF"/><path d="m19 53h10v2h-10z" data-original="#000000" class="active-path" data-old_color="#000000" fill="#FFFFFF"/><path d="m47 49h2v2h-2z" data-original="#000000" class="active-path" data-old_color="#000000" fill="#FFFFFF"/><path d="m47 53h2v2h-2z" data-original="#000000" class="active-path" data-old_color="#000000" fill="#FFFFFF"/><path d="m47 57h2v2h-2z" data-original="#000000" class="active-path" data-old_color="#000000" fill="#FFFFFF"/></g> </svg>
