<?xml version="1.0"?>
<svg xmlns="http://www.w3.org/2000/svg" id="Layer_5" enable-background="new 0 0 64 64" height="512px" viewBox="0 0 64 64" width="512px" class=""><g><path d="m23 53h10v2h-10z" data-original="#000000" class="active-path" data-old_color="#000000" fill="#FFFFFF"/><path d="m31 57h2v2h-2z" data-original="#000000" class="active-path" data-old_color="#000000" fill="#FFFFFF"/><path d="m23 57h2v2h-2z" data-original="#000000" class="active-path" data-old_color="#000000" fill="#FFFFFF"/><path d="m27 57h2v2h-2z" data-original="#000000" class="active-path" data-old_color="#000000" fill="#FFFFFF"/><path d="m43 53h10v2h-10z" data-original="#000000" class="active-path" data-old_color="#000000" fill="#FFFFFF"/><path d="m51 57h2v2h-2z" data-original="#000000" class="active-path" data-old_color="#000000" fill="#FFFFFF"/><path d="m47 57h2v2h-2z" data-original="#000000" class="active-path" data-old_color="#000000" fill="#FFFFFF"/><path d="m43 57h2v2h-2z" data-original="#000000" class="active-path" data-old_color="#000000" fill="#FFFFFF"/><path d="m46 35c9.374 0 17-7.626 17-17s-7.626-17-17-17c-4.813 0-9.284 1.984-12.498 5.484-1.908-3.273-5.448-5.484-9.502-5.484-5.786 0-10.532 4.493-10.958 10.171-1.183.402-2.042 1.512-2.042 2.829v4c0 1.654 1.346 3 3 3 .79 0 1.504-.313 2.04-.813.743 1.407 1.85 2.59 3.193 3.433-5.786 1.505-10.628 5.687-12.886 11.38h-2.347c-1.654 0-3 1.346-3 3v22c0 1.654 1.346 3 3 3h29 1 20c1.654 0 3-1.346 3-3v-18c0-1.654-1.346-3-3-3h-11.257c-.259-1.636-.717-3.197-1.358-4.658 1.493.421 3.033.658 4.615.658zm-10.339-8h3.527c.625 2.162 1.469 3.988 2.476 5.347-.561-.17-1.114-.368-1.656-.605-1.169-1.825-2.648-3.422-4.347-4.742zm-11.661.586-2.407-2.407c.79-.113 1.593-.179 2.407-.179.816 0 1.613.075 2.4.186zm4.564-1.736-1.146 5.155-2.004-2.005zm-5.978 3.15-2.005 2.005-1.146-5.155zm23.414-26c1.716 0 3.547 2.264 4.729 6h-9.458c1.182-3.736 3.013-6 4.729-6zm5.264 8c.398 1.778.653 3.797.713 6h-11.955c.061-2.203.316-4.222.713-6zm9.685 6h-6.972c-.056-2.139-.286-4.16-.668-6h5.948c.96 1.812 1.549 3.845 1.692 6zm-14.949 16c-1.716 0-3.547-2.264-4.729-6h9.458c-1.182 3.736-3.013 6-4.729 6zm-5.264-8c-.398-1.778-.653-3.797-.713-6h11.955c-.061 2.203-.316 4.222-.713 6zm13.241-6h6.972c-.143 2.155-.732 4.188-1.693 6h-5.948c.383-1.84.613-3.861.669-6zm-15.954-2h-1.023v-3c0-1.317-.859-2.427-2.042-2.829-.004-.057-.004-.115-.009-.171h3.742c-.382 1.84-.612 3.861-.668 6zm-5.023-3c0-.552.448-1 1-1s1 .448 1 1v4c0 .552-.448 1-1 1s-1-.448-1-1zm1 7c1.302 0 2.402-.839 2.816-2h1.207c.056 2.139.286 4.16.668 6h-5.947c-.639-1.206-1.107-2.487-1.395-3.821.224-.317.43-.647.612-.992.535.5 1.249.813 2.039.813zm-4.262 1.928c.111.367.229.732.365 1.091-.438-.148-.882-.284-1.333-.4.336-.212.663-.438.968-.691zm20.59 9.429c1.011-1.36 1.858-3.189 2.484-5.357h5.159c-1.896 2.517-4.555 4.425-7.643 5.357zm7.644-23.357h-5.159c-.626-2.168-1.473-3.997-2.484-5.357 3.087.932 5.746 2.84 7.643 5.357zm-16.312-5.343c-1.005 1.359-1.848 3.183-2.472 5.343h-4.614c-.048-.169-.099-.336-.155-.502 1.917-2.337 4.427-3.996 7.241-4.841zm-17.66-.657c4.692 0 8.551 3.609 8.959 8.197-.374.139-.712.349-.999.616-1.509-2.858-4.509-4.813-7.96-4.813s-6.451 1.955-7.96 4.813c-.287-.268-.625-.477-.999-.616.408-4.588 4.267-8.197 8.959-8.197zm6.315 10h-1.487c-1.534 0-3.036-.622-4.121-1.707l-.707-.707-.707.707c-1.085 1.085-2.587 1.707-4.121 1.707h-1.487c1.126-2.361 3.53-4 6.315-4s5.188 1.639 6.315 4zm-15.315 5c0 .552-.448 1-1 1s-1-.448-1-1v-4c0-.552.448-1 1-1s1 .448 1 1zm2-2c0-.34.033-.672.08-1h2.092c1.745 0 3.459-.6 4.828-1.668 1.369 1.068 3.083 1.668 4.828 1.668h2.092c.047.328.08.66.08 1 0 3.859-3.141 7-7 7s-7-3.141-7-7zm-14 44v-22c0-.552.448-1 1-1h9v6h12v-6h9c.552 0 1 .448 1 1v11h-16v12h-15c-.552 0-1-.448-1-1zm12-23h8v4h-8zm18 24h-12v-10h14v9c0 .552-.448 1-1 1zm22-19v18c0 .552-.448 1-1 1h-17.184c.112-.314.184-.648.184-1v-19h2v6h10v-6h5c.552 0 1 .448 1 1zm-14-1h6v4h-6zm-4-2v-1c0-1.654-1.346-3-3-3h-25.494c1.801-3.983 5.05-7.062 8.981-8.697l1.932 8.692 4.581-4.581 4.581 4.581 1.932-8.693c5.241 2.169 9.175 6.88 10.207 12.698z" data-original="#000000" class="active-path" data-old_color="#000000" fill="#FFFFFF"/><path d="m42 21h2v2h-2z" data-original="#000000" class="active-path" data-old_color="#000000" fill="#FFFFFF"/><path d="m46 21h2v2h-2z" data-original="#000000" class="active-path" data-old_color="#000000" fill="#FFFFFF"/><path d="m48 13h2v2h-2z" data-original="#000000" class="active-path" data-old_color="#000000" fill="#FFFFFF"/><path d="m44 13h2v2h-2z" data-original="#000000" class="active-path" data-old_color="#000000" fill="#FFFFFF"/></g> </svg>
