<?xml version="1.0"?>
<svg xmlns="http://www.w3.org/2000/svg" id="Layer_5" enable-background="new 0 0 64 64" height="512px" viewBox="0 0 64 64" width="512px" class=""><g><path d="m63.237 31-3.429-16h-8.808v-6c1.103 0 2-.897 2-2v-4c0-1.103-.897-2-2-2h-38c-1.103 0-2 .897-2 2v4c0 1.103.897 2 2 2v6h-8.809l-3.428 16h2.237v12.184c-1.161.414-2 1.514-2 2.816v14c0 1.654 1.346 3 3 3h16c1.654 0 3-1.346 3-3v-5h9 12 17v-24zm-5.046-14 2.571 12h-9.762v-12zm-7.191 28h4v4h-4zm0-10h4v4h-4zm-38-32h38l.001 4h-38.001zm36 6v44h-2v-1-8-16c0-2.757-2.243-5-5-5h-20c-2.757 0-5 2.243-5 5v4 8 3h-2v-34zm-29 32c-.552 0-1-.448-1-1v-8c0-.551.448-1 1-1h1v4h10v-4h1c.552 0 1 .449 1 1v8c0 .552-.448 1-1 1zm-11 4h6v4h-6zm4-6h-4v-4h4zm10-8h6v2h-6zm12 12h6v2h-6zm-.184-2c.112-.314.184-.648.184-1v-8c0-1.654-1.346-3-3-3h-12c-.352 0-.686.072-1 .184v-1.184c0-1.654 1.346-3 3-3h20c1.654 0 3 1.346 3 3v13.184c-.314-.112-.648-.184-1-.184zm-29.007-24h7.191v12h-9.763zm7.191 14v2h-6v8h6v2h-8v-12zm8 29c0 .552-.448 1-1 1h-16c-.552 0-1-.448-1-1v-14c0-.552.448-1 1-1h3v6h10v-6h3c.552 0 1 .448 1 1zm-1-17h-1v-.184c.314.112.648.184 1 .184h9.184c-.112.314-.184.648-.184 1v8c0 .352.072.686.184 1h-6.184v-7c0-1.654-1.346-3-3-3zm12 10c-.552 0-1-.448-1-1v-8c0-.552.448-1 1-1h1v4h10v-4h1c.552 0 1 .448 1 1v8c0 .552-.448 1-1 1zm27 0h-8v-2h6v-8h-6v-2h6v-8h-6v-2h8z" data-original="#000000" class="active-path" data-old_color="#000000" fill="#FFFFFF"/><path d="m54.688 22.875h2v2h-2z" transform="matrix(.978 -.21 .21 .978 -3.772 12.227)" data-original="#000000" class="active-path" data-old_color="#000000" fill="#FFFFFF"/><path d="m53.849 18.964h1.999v2h-1.999z" transform="matrix(.978 -.21 .21 .978 -2.965 11.936)" data-original="#000000" class="active-path" data-old_color="#000000" fill="#FFFFFF"/><path d="m5.877 24.907h2v2h-2z" transform="matrix(.21 -.978 .978 .21 -19.897 27.19)" data-original="#000000" class="active-path" data-old_color="#000000" fill="#FFFFFF"/><path d="m6.715 20.996h2v1.999h-2z" transform="matrix(.21 -.978 .978 .21 -15.409 24.932)" data-original="#000000" class="active-path" data-old_color="#000000" fill="#FFFFFF"/><path d="m19 19h8c1.103 0 2-.897 2-2v-4c0-1.103-.897-2-2-2h-8c-1.103 0-2 .897-2 2v4c0 1.103.897 2 2 2zm0-6h8l.001 4h-8.001z" data-original="#000000" class="active-path" data-old_color="#000000" fill="#FFFFFF"/><path d="m37 19h8c1.103 0 2-.897 2-2v-4c0-1.103-.897-2-2-2h-8c-1.103 0-2 .897-2 2v4c0 1.103.897 2 2 2zm0-6h8l.001 4h-8.001z" data-original="#000000" class="active-path" data-old_color="#000000" fill="#FFFFFF"/><path d="m13 56h2v2h-2z" data-original="#000000" class="active-path" data-old_color="#000000" fill="#FFFFFF"/><path d="m9 56h2v2h-2z" data-original="#000000" class="active-path" data-old_color="#000000" fill="#FFFFFF"/><path d="m5 56h2v2h-2z" data-original="#000000" class="active-path" data-old_color="#000000" fill="#FFFFFF"/><path d="m41 35h2v2h-2z" data-original="#000000" class="active-path" data-old_color="#000000" fill="#FFFFFF"/><path d="m41 27h2v2h-2z" data-original="#000000" class="active-path" data-old_color="#000000" fill="#FFFFFF"/><path d="m41 31h2v2h-2z" data-original="#000000" class="active-path" data-old_color="#000000" fill="#FFFFFF"/></g> </svg>
