<?xml version="1.0"?>
<svg xmlns="http://www.w3.org/2000/svg" viewBox="0 0 64 64" width="512px" height="512px" class=""><g><g id="Booking-3" data-name="Booking"><path d="M13,10H9a1,1,0,0,0-1,1v4a1,1,0,0,0,1,1h4a1,1,0,0,0,1-1V11A1,1,0,0,0,13,10Zm-1,4H10V12h2Z" data-original="#000000" class="active-path" data-old_color="#000000" fill="#FFFFFF"/><path d="M17,16h4a1,1,0,0,0,1-1V11a1,1,0,0,0-1-1H17a1,1,0,0,0-1,1v4A1,1,0,0,0,17,16Zm1-4h2v2H18Z" data-original="#000000" class="active-path" data-old_color="#000000" fill="#FFFFFF"/><path d="M25,16h4a1,1,0,0,0,1-1V11a1,1,0,0,0-1-1H25a1,1,0,0,0-1,1v4A1,1,0,0,0,25,16Zm1-4h2v2H26Z" data-original="#000000" class="active-path" data-old_color="#000000" fill="#FFFFFF"/><path d="M33,16h4a1,1,0,0,0,1-1V11a1,1,0,0,0-1-1H33a1,1,0,0,0-1,1v4A1,1,0,0,0,33,16Zm1-4h2v2H34Z" data-original="#000000" class="active-path" data-old_color="#000000" fill="#FFFFFF"/><path d="M41,16h4a1,1,0,0,0,1-1V11a1,1,0,0,0-1-1H41a1,1,0,0,0-1,1v4A1,1,0,0,0,41,16Zm1-4h2v2H42Z" data-original="#000000" class="active-path" data-old_color="#000000" fill="#FFFFFF"/><path d="M13,18H9a1,1,0,0,0-1,1v4a1,1,0,0,0,1,1h4a1,1,0,0,0,1-1V19A1,1,0,0,0,13,18Zm-1,4H10V20h2Z" data-original="#000000" class="active-path" data-old_color="#000000" fill="#FFFFFF"/><path d="M13,26H9a1,1,0,0,0-1,1v4a1,1,0,0,0,1,1h4a1,1,0,0,0,1-1V27A1,1,0,0,0,13,26Zm-1,4H10V28h2Z" data-original="#000000" class="active-path" data-old_color="#000000" fill="#FFFFFF"/><path d="M13,34H9a1,1,0,0,0-1,1v4a1,1,0,0,0,1,1h4a1,1,0,0,0,1-1V35A1,1,0,0,0,13,34Zm-1,4H10V36h2Z" data-original="#000000" class="active-path" data-old_color="#000000" fill="#FFFFFF"/><path d="M13,42H9a1,1,0,0,0-1,1v4a1,1,0,0,0,1,1h4a1,1,0,0,0,1-1V43A1,1,0,0,0,13,42Zm-1,4H10V44h2Z" data-original="#000000" class="active-path" data-old_color="#000000" fill="#FFFFFF"/><path d="M17,24h4a1,1,0,0,0,1-1V19a1,1,0,0,0-1-1H17a1,1,0,0,0-1,1v4A1,1,0,0,0,17,24Zm1-4h2v2H18Z" data-original="#000000" class="active-path" data-old_color="#000000" fill="#FFFFFF"/><path d="M25,24h4a1,1,0,0,0,1-1V19a1,1,0,0,0-1-1H25a1,1,0,0,0-1,1v4A1,1,0,0,0,25,24Zm1-4h2v2H26Z" data-original="#000000" class="active-path" data-old_color="#000000" fill="#FFFFFF"/><path d="M33,24h4a1,1,0,0,0,1-1V19a1,1,0,0,0-1-1H33a1,1,0,0,0-1,1v4A1,1,0,0,0,33,24Zm1-4h2v2H34Z" data-original="#000000" class="active-path" data-old_color="#000000" fill="#FFFFFF"/><path d="M41,24h4a1,1,0,0,0,1-1V19a1,1,0,0,0-1-1H41a1,1,0,0,0-1,1v4A1,1,0,0,0,41,24Zm1-4h2v2H42Z" data-original="#000000" class="active-path" data-old_color="#000000" fill="#FFFFFF"/><path d="M43,34v2a7.008,7.008,0,0,1,7,7h2A9.01,9.01,0,0,0,43,34Z" data-original="#000000" class="active-path" data-old_color="#000000" fill="#FFFFFF"/><path d="M61.535,57.293,57.293,53.05a1.029,1.029,0,0,0-1.414,0l-.707.708-2.311-2.311A12.955,12.955,0,0,0,50,32.063V8h1a1,1,0,0,0,1-1V3a1,1,0,0,0-1-1H3A1,1,0,0,0,2,3V7A1,1,0,0,0,3,8H4V53a1,1,0,0,0,1,1H36.1a12.915,12.915,0,0,0,15.343-1.139l2.311,2.311-.707.707a1,1,0,0,0,0,1.414l4.242,4.243a3,3,0,1,0,4.242-4.243ZM4,4H50V6H4ZM6,8H48V31a12.985,12.985,0,0,0-2-.64V27a1,1,0,0,0-1-1H41a1,1,0,0,0-1,1v3.363a12.944,12.944,0,0,0-4,1.7V27a1,1,0,0,0-1-1H19a1,1,0,0,0-1,1V44H17a1,1,0,0,0-1,1v3a1,1,0,0,0-1,1v3H6ZM42,30V28h2v2ZM17,50H32.063a13.052,13.052,0,0,0,1.578,2H17Zm1-2V46H30.363A12.985,12.985,0,0,0,31,48Zm12-4H24V32h6Zm1-14H23a1,1,0,0,0-1,1V44H20V28H34v5.641A13.044,13.044,0,0,0,32,36.1V31A1,1,0,0,0,31,30ZM43,54A11,11,0,1,1,54,43,11.013,11.013,0,0,1,43,54Zm17.121,6.122a1.025,1.025,0,0,1-1.414,0l-3.535-3.536,1.414-1.414,3.535,3.535A1,1,0,0,1,60.121,60.122Z" data-original="#000000" class="active-path" data-old_color="#000000" fill="#FFFFFF"/></g></g> </svg>
