<?xml version="1.0"?>
<svg xmlns="http://www.w3.org/2000/svg" id="Layer_5" enable-background="new 0 0 64 64" height="512px" viewBox="0 0 64 64" width="512px" class=""><g><path d="m46 49.184v-12.184h-18v12h-2v-14.562c.383-.223.742-.491 1.037-.835 1.23-1.435 1.283-3.491.133-5.115l-13.679-11.681c-.289-.246-.597-.463-.916-.661 2.335-1.173 4.017-3.451 4.356-6.146h3.069c1.654 0 3-1.346 3-3s-1.346-3-3-3h-4.773c-1.514-1.881-3.797-3-6.227-3-4.411 0-8 3.589-8 8 0 2.947 1.606 5.521 3.985 6.909-2.37 1.282-3.985 3.791-3.985 6.671v36.42c0 2.206 1.794 4 4 4 1.2 0 2.266-.542 3-1.382.734.84 1.8 1.382 3 1.382 2.206 0 4-1.794 4-4v-30.446l5 4.286v19.16c0 .828.338 1.579.882 2.123-1.138.917-1.882 2.305-1.882 3.877 0 2.757 2.243 5 5 5s5-2.243 5-5c0-1.13-.391-2.162-1.026-3h10.051c-.634.838-1.025 1.87-1.025 3 0 2.757 2.243 5 5 5s5-2.243 5-5c0-1.195-.439-2.279-1.141-3.14 1.234-.372 2.141-1.506 2.141-2.86 0-1.302-.839-2.402-2-2.816zm-10-10.184h2v2h-2zm-6 0h4v4h6v-4h4v10h-14zm-9-32c0 .551-.449 1-1 1h-8.382l.171-.342c.511-1.023 1.539-1.658 2.683-1.658h5.528c.551 0 1 .449 1 1zm-12-4c1.375 0 2.685.481 3.737 1.319-1.17.431-2.156 1.283-2.737 2.445l-.618 1.236h-6.292c.479-2.833 2.943-5 5.91-5zm-5.91 7h11.82c-.478 2.833-2.942 5-5.91 5s-5.431-2.167-5.91-5zm9.91 49c0 1.103-.897 2-2 2s-2-.897-2-2v-3-14.859c0-1.005.5-1.938 1.336-2.496l1.219-.812-1.109-1.664-1.219.811c-1.394.93-2.227 2.485-2.227 4.161v14.859 3c0 1.103-.897 2-2 2s-2-.897-2-2v-36.42c0-3.077 2.503-5.58 5.58-5.58 1.323 0 2.607.473 3.616 1.331l13.407 11.409c.554.856.525 1.851-.084 2.562-.691.807-2.015.909-2.82.217l-14-12-1.302 1.519 5.603 4.802zm14-1c0 1.654-1.346 3-3 3s-3-1.346-3-3 1.346-3 3-3 3 1.346 3 3zm15 3c-1.654 0-3-1.346-3-3s1.346-3 3-3 3 1.346 3 3-1.346 3-3 3zm3-8h-22c-.551 0-1-.449-1-1v-17.539c.604.349 1.293.539 2 .539v16h21c.551 0 1 .449 1 1s-.449 1-1 1z" data-original="#000000" class="active-path" data-old_color="#000000" fill="#FFFFFF"/><path d="m58.864 16c2.463-1.365 4.136-3.99 4.136-7 0-4.411-3.589-8-8-8-2.43 0-4.713 1.119-6.227 3h-4.773c-1.654 0-3 1.346-3 3s1.346 3 3 3h3.069c.334 2.661 1.976 4.916 4.264 6.102l-5.333 2v-2.102c0-1.654-1.346-3-3-3h-12c-1.654 0-3 1.346-3 3v8c0 1.654 1.346 3 3 3h4.541c.708 1.217 2.025 2 3.459 2 .477 0 .946-.084 1.398-.252l8.602-3.226v33.478c0 2.206 1.794 4 4 4 1.2 0 2.266-.542 3-1.382.734.84 1.8 1.382 3 1.382 2.206 0 4-1.794 4-4v-35.998c0-3.011-1.673-5.636-4.136-7.002zm2.046-8h-6.292l-.618-1.236c-.581-1.162-1.567-2.013-2.737-2.444 1.052-.839 2.362-1.32 3.737-1.32 2.967 0 5.431 2.167 5.91 5zm-17.91-1c0-.551.449-1 1-1h5.528c1.144 0 2.172.635 2.683 1.658l.171.342h-8.382c-.551 0-1-.449-1-1zm6.09 3h11.82c-.478 2.833-2.942 5-5.91 5s-5.431-2.167-5.91-5zm-13.09 5h2v2h-2zm-.987 10h-4.013c-.551 0-1-.449-1-1v-8c0-.551.449-1 1-1h3v4h6v-4h3c.551 0 1 .449 1 1v2.852l-6.405 2.402c-1.602.602-2.58 2.128-2.582 3.746zm25.987 34c0 1.103-.897 2-2 2s-2-.897-2-2v-3-14.859c0-1.676-.833-3.231-2.227-4.16l-1.219-.812-1.109 1.664 1.219.812c.836.557 1.336 1.49 1.336 2.496v14.859 3c0 1.103-.897 2-2 2s-2-.897-2-2v-34.228l5.404-2.027-.702-1.873-16.003 6.001c-1.012.376-2.196-.172-2.572-1.172-.387-1.032.138-2.187 1.17-2.575l16.004-6.002c.224-.082.459-.124.697-.124 3.31 0 6.002 2.692 6.002 6.002z" data-original="#000000" class="active-path" data-old_color="#000000" fill="#FFFFFF"/></g> </svg>
