<svg xmlns="http://www.w3.org/2000/svg" viewBox="0 0 500 500"><g id="freepik--background-complete--inject-20"><g id="freepik--background-complete--inject-123--inject-20"><rect y="398.87" width="500" height="0.25" style="fill:#ebebeb"></rect><rect x="416.78" y="414.96" width="18.89" height="0.25" style="fill:#ebebeb"></rect><rect x="293.05" y="413.22" width="29.47" height="0.25" style="fill:#ebebeb"></rect><rect x="368.67" y="405.68" width="47.11" height="0.25" style="fill:#ebebeb"></rect><rect x="52.46" y="407.36" width="10.97" height="0.25" style="fill:#ebebeb"></rect><rect x="72.33" y="407.36" width="38.56" height="0.25" style="fill:#ebebeb"></rect><rect x="171" y="411.58" width="54.15" height="0.25" style="fill:#ebebeb"></rect><path d="M237,335.69H43.91a5.71,5.71,0,0,1-5.7-5.71V58.55a5.71,5.71,0,0,1,5.7-5.66H237a5.71,5.71,0,0,1,5.71,5.71h0V330A5.71,5.71,0,0,1,237,335.69ZM43.91,53.09a5.46,5.46,0,0,0-5.45,5.46V330a5.45,5.45,0,0,0,5.45,5.46H237a5.47,5.47,0,0,0,5.46-5.46V58.55A5.48,5.48,0,0,0,237,53.09Z" style="fill:#ebebeb"></path><path d="M453.31,335.69H260.21A5.71,5.71,0,0,1,254.5,330V58.55a5.72,5.72,0,0,1,5.71-5.66h193.1A5.72,5.72,0,0,1,459,58.55V330A5.7,5.7,0,0,1,453.31,335.69ZM260.21,53.09a5.48,5.48,0,0,0-5.46,5.46V330a5.47,5.47,0,0,0,5.46,5.46h193.1a5.47,5.47,0,0,0,5.46-5.46V58.55a5.48,5.48,0,0,0-5.46-5.46Z" style="fill:#ebebeb"></path><rect x="416.78" y="414.96" width="18.89" height="0.25" style="fill:#ebebeb"></rect><rect x="293.05" y="413.22" width="29.47" height="0.25" style="fill:#ebebeb"></rect><rect x="368.67" y="405.68" width="47.11" height="0.25" style="fill:#ebebeb"></rect><rect x="52.46" y="407.36" width="10.97" height="0.25" style="fill:#ebebeb"></rect><rect x="72.33" y="407.36" width="38.56" height="0.25" style="fill:#ebebeb"></rect><rect x="171" y="411.58" width="54.15" height="0.25" style="fill:#ebebeb"></rect></g><circle cx="420.01" cy="393.55" r="6.73" style="fill:#e0e0e0"></circle><circle cx="413.28" cy="393.55" r="6.73" style="fill:#ebebeb"></circle><circle cx="329.7" cy="393.55" r="6.73" style="fill:#e0e0e0"></circle><rect x="305.88" y="238.81" width="113.48" height="149.37" style="fill:#ebebeb"></rect><rect x="327.88" y="238.81" width="98.86" height="149.37" style="fill:#f5f5f5"></rect><rect x="336.82" y="246.54" width="81.77" height="134.08" style="fill:none;stroke:#e0e0e0;stroke-miterlimit:10;stroke-width:2px"></rect><line x1="336.82" y1="289.24" x2="419.36" y2="289.24" style="fill:none;stroke:#e0e0e0;stroke-miterlimit:10;stroke-width:2px"></line><line x1="336.82" y1="335.88" x2="419.36" y2="335.88" style="fill:none;stroke:#e0e0e0;stroke-miterlimit:10;stroke-width:2px"></line><rect x="364.84" y="252.15" width="30.37" height="3.62" style="fill:#fafafa"></rect><rect x="364.84" y="295.09" width="30.37" height="3.62" style="fill:#fafafa"></rect><rect x="364.84" y="343.22" width="30.37" height="3.62" style="fill:#fafafa"></rect><circle cx="322.97" cy="393.55" r="6.73" style="fill:#ebebeb"></circle><rect x="97.85" y="93.36" width="206.22" height="142.28" style="fill:#ebebeb"></rect><rect x="304.07" y="93.36" width="4.01" height="142.28" style="fill:#e0e0e0"></rect><rect x="103.56" y="107.7" width="196.32" height="120.89" style="fill:#f5f5f5"></rect><polygon points="198.69 228.59 180.92 228.59 129.77 107.51 147.54 107.51 198.69 228.59" style="fill:#fafafa"></polygon><polygon points="238.41 228.59 206.21 228.59 155.06 107.51 187.28 107.51 238.41 228.59" style="fill:#fafafa"></polygon><polygon points="286.2 228.63 268.42 228.63 217.29 107.56 235.05 107.56 286.2 228.63" style="fill:#fafafa"></polygon><rect x="97.85" y="86.08" width="210.24" height="59.43" style="fill:#e0e0e0;stroke:#f0f0f0;stroke-miterlimit:10;opacity:0.30000000000000004"></rect><rect x="97.85" y="133.11" width="209.64" height="1.84" style="fill:#fafafa"></rect><rect x="97.85" y="124.6" width="209.64" height="1.84" style="fill:#fafafa"></rect><rect x="97.85" y="116.08" width="209.64" height="1.84" style="fill:#fafafa"></rect><rect x="97.85" y="107.57" width="209.64" height="1.84" style="fill:#fafafa"></rect><rect x="97.85" y="99.05" width="209.64" height="1.84" style="fill:#fafafa"></rect><rect x="95.36" y="83.53" width="216.61" height="2.5" style="fill:#e0e0e0"></rect><path d="M96.78,84.78c0,2.23-1.31,4-2.91,4S91,87,91,84.78s1.31-4,2.92-4S96.78,82.54,96.78,84.78Z" style="fill:#e0e0e0"></path><path d="M314.88,84.78c0,2.23-1.31,4-2.91,4s-2.92-1.81-2.92-4,1.31-4,2.92-4S314.88,82.54,314.88,84.78Z" style="fill:#e0e0e0"></path></g><g id="freepik--Shadow--inject-20"><ellipse cx="245.35" cy="439.91" rx="159.43" ry="12.46" style="fill:#f5f5f5"></ellipse></g><g id="freepik--Money--inject-20"><path d="M396.91,161.59,375.6,228.07a4.62,4.62,0,0,1-7.73,1.8L356.79,218.4a4.64,4.64,0,0,0-6.44-.21l-92.53,84a4.63,4.63,0,0,1-6.07.13L193,253.47a4.63,4.63,0,0,0-6,.1L71.59,355.85l4.38-41a4.6,4.6,0,0,1,1.53-3l108.91-96.52a4.64,4.64,0,0,1,6-.09L250.92,264a4.63,4.63,0,0,0,6.07-.13l73-66.31a4.62,4.62,0,0,0,.21-6.64L319.3,179.58a4.63,4.63,0,0,1,2.28-7.73l69.88-16.18A4.62,4.62,0,0,1,396.91,161.59Z" style="fill:#407BFF"></path><path d="M396.88,161.7,375.64,228a4.7,4.7,0,0,1-7.85,1.82l-11-11.34a4.71,4.71,0,0,0-6.54-.22l-92.43,83.93a4.68,4.68,0,0,1-3.35,1.22,4.61,4.61,0,0,1-2.82-1.08l-58.62-48.79a4.74,4.74,0,0,0-6.12.09L71.59,355.85l4.57-42.73,110.21-97.67a4.72,4.72,0,0,1,6.12-.09l24.91,20.73L250.87,264a4.72,4.72,0,0,0,6.16-.13L330,197.6a4.68,4.68,0,0,0,.22-6.74l-10.81-11.19a4.7,4.7,0,0,1,2.32-7.84l69.64-16.14A4.7,4.7,0,0,1,396.88,161.7Z" style="opacity:0.1"></path><rect x="191" y="411.04" width="85.31" height="19.36" style="fill:#407BFF"></rect><rect x="199.49" y="411.04" width="2.31" height="19.36" style="opacity:0.2"></rect><rect x="211.36" y="411.04" width="2.31" height="19.36" style="opacity:0.2"></rect><polygon points="225.53 430.4 223.22 430.4 223.22 411.04 225.53 411.38 225.53 430.4" style="opacity:0.2"></polygon><rect x="235.09" y="411.04" width="2.31" height="19.36" style="opacity:0.2"></rect><rect x="246.96" y="411.04" width="2.31" height="19.36" style="opacity:0.2"></rect><rect x="258.82" y="411.04" width="2.31" height="19.36" style="opacity:0.2"></rect><rect x="270.69" y="411.04" width="2.31" height="19.36" style="opacity:0.2"></rect><rect x="191" y="411.04" width="85.31" height="3.99" style="opacity:0.09"></rect><rect x="204.3" y="391.67" width="85.31" height="19.36" style="fill:#407BFF"></rect><rect x="212.79" y="391.67" width="2.31" height="19.36" style="opacity:0.2"></rect><rect x="224.66" y="391.67" width="2.31" height="19.36" style="opacity:0.2"></rect><rect x="236.53" y="391.67" width="2.31" height="19.36" style="opacity:0.2"></rect><rect x="248.39" y="391.67" width="2.31" height="19.36" style="opacity:0.2"></rect><rect x="260.26" y="391.67" width="2.31" height="19.36" style="opacity:0.2"></rect><rect x="272.12" y="391.67" width="2.31" height="19.36" style="opacity:0.2"></rect><rect x="283.99" y="391.67" width="2.31" height="19.36" style="opacity:0.2"></rect><rect x="204.3" y="391.67" width="85.31" height="3.99" style="opacity:0.09"></rect><rect x="192.44" y="372.31" width="85.31" height="19.36" style="fill:#407BFF"></rect><rect x="200.93" y="372.31" width="2.31" height="19.36" style="opacity:0.2"></rect><polygon points="215.1 391.68 212.79 391.68 212.79 372.33 215.1 372.31 215.1 391.68" style="opacity:0.2"></polygon><rect x="224.66" y="372.31" width="2.31" height="19.36" style="opacity:0.2"></rect><rect x="236.53" y="372.31" width="2.31" height="19.36" style="opacity:0.2"></rect><polygon points="250.7 391.68 248.39 391.68 248.39 372.31 250.7 372.33 250.7 391.68" style="opacity:0.2"></polygon><rect x="260.26" y="372.31" width="2.31" height="19.36" style="opacity:0.2"></rect><rect x="272.12" y="372.31" width="2.31" height="19.36" style="opacity:0.2"></rect><rect x="192.44" y="372.31" width="85.31" height="4.77" style="opacity:0.09"></rect><rect x="204.3" y="352.96" width="85.31" height="19.36" style="fill:#407BFF"></rect><rect x="212.79" y="352.96" width="2.31" height="19.36" style="opacity:0.2"></rect><rect x="224.66" y="352.96" width="2.31" height="19.36" style="opacity:0.2"></rect><rect x="236.53" y="352.96" width="2.31" height="19.36" style="opacity:0.2"></rect><rect x="248.39" y="352.96" width="2.31" height="19.36" style="opacity:0.2"></rect><rect x="260.26" y="352.96" width="2.31" height="19.36" style="opacity:0.2"></rect><polygon points="274.43 372.31 272.12 372.33 272.12 352.96 274.43 353.31 274.43 372.31" style="opacity:0.2"></polygon><rect x="283.99" y="352.96" width="2.31" height="19.36" style="opacity:0.2"></rect><rect x="204.3" y="352.96" width="85.31" height="3.99" style="opacity:0.09"></rect><rect x="208.05" y="333.6" width="85.31" height="19.36" style="fill:#407BFF"></rect><rect x="216.54" y="333.6" width="2.31" height="19.36" style="opacity:0.2"></rect><rect x="228.4" y="333.6" width="2.31" height="19.36" style="opacity:0.2"></rect><rect x="240.27" y="333.6" width="2.31" height="19.36" style="opacity:0.2"></rect><rect x="252.14" y="333.6" width="2.31" height="19.36" style="opacity:0.2"></rect><rect x="264" y="333.6" width="2.31" height="19.36" style="opacity:0.2"></rect><rect x="275.87" y="333.6" width="2.31" height="19.36" style="opacity:0.2"></rect><rect x="287.73" y="333.6" width="2.31" height="19.36" style="opacity:0.2"></rect><rect x="208.05" y="333.6" width="85.31" height="3.99" style="opacity:0.09"></rect><rect x="197.9" y="314.24" width="85.31" height="19.36" style="fill:#407BFF"></rect><rect x="206.39" y="314.24" width="2.31" height="19.36" style="opacity:0.2"></rect><rect x="218.26" y="314.24" width="2.31" height="19.36" style="opacity:0.2"></rect><rect x="230.12" y="314.24" width="2.31" height="19.36" style="opacity:0.2"></rect><rect x="241.99" y="314.24" width="2.31" height="19.36" style="opacity:0.2"></rect><rect x="253.85" y="314.24" width="2.31" height="19.36" style="opacity:0.2"></rect><rect x="265.72" y="314.24" width="2.31" height="19.36" style="opacity:0.2"></rect><rect x="277.59" y="314.24" width="2.31" height="19.36" style="opacity:0.2"></rect><rect x="197.9" y="314.24" width="85.31" height="3.99" style="opacity:0.09"></rect><rect x="84.33" y="411.33" width="85.31" height="19.36" style="fill:#407BFF"></rect><rect x="92.82" y="411.33" width="2.31" height="19.36" style="opacity:0.2"></rect><rect x="104.69" y="411.33" width="2.31" height="19.36" style="opacity:0.2"></rect><rect x="116.56" y="411.33" width="2.31" height="19.36" style="opacity:0.2"></rect><rect x="128.42" y="411.33" width="2.31" height="19.36" style="opacity:0.2"></rect><rect x="140.29" y="411.33" width="2.31" height="19.36" style="opacity:0.2"></rect><rect x="152.15" y="411.33" width="2.31" height="19.36" style="opacity:0.2"></rect><rect x="164.02" y="411.33" width="2.31" height="19.36" style="opacity:0.2"></rect><rect x="84.33" y="411.33" width="85.31" height="3.99" style="opacity:0.09"></rect><rect x="88.36" y="391.97" width="85.31" height="19.36" style="fill:#407BFF"></rect><rect x="96.85" y="391.97" width="2.31" height="19.36" style="opacity:0.2"></rect><rect x="108.72" y="391.97" width="2.31" height="19.36" style="opacity:0.2"></rect><rect x="120.58" y="391.97" width="2.31" height="19.36" style="opacity:0.2"></rect><rect x="132.45" y="391.97" width="2.31" height="19.36" style="opacity:0.2"></rect><rect x="144.31" y="391.97" width="2.31" height="19.36" style="opacity:0.2"></rect><rect x="156.18" y="391.97" width="2.31" height="19.36" style="opacity:0.2"></rect><rect x="168.05" y="391.97" width="2.31" height="19.36" style="opacity:0.2"></rect><rect x="88.36" y="391.97" width="85.31" height="3.65" style="opacity:0.09"></rect><rect x="83.13" y="372.6" width="85.31" height="19.36" style="fill:#407BFF"></rect><rect x="91.62" y="372.6" width="2.31" height="19.36" style="opacity:0.2"></rect><rect x="103.49" y="372.6" width="2.31" height="19.36" style="opacity:0.2"></rect><rect x="115.35" y="372.6" width="2.31" height="19.36" style="opacity:0.2"></rect><rect x="127.22" y="372.6" width="2.31" height="19.36" style="opacity:0.2"></rect><rect x="139.09" y="372.6" width="2.31" height="19.36" style="opacity:0.2"></rect><rect x="150.95" y="372.6" width="2.31" height="19.36" style="opacity:0.2"></rect><rect x="162.82" y="372.6" width="2.31" height="19.36" style="opacity:0.2"></rect><rect x="83.13" y="372.6" width="85.31" height="3.65" style="opacity:0.09"></rect><rect x="337.15" y="362.89" width="18.69" height="68.32" style="fill:#407BFF"></rect><g style="opacity:0.4"><polygon points="355.84 381.07 355.84 394.96 337.15 413.65 337.15 398.71 355.84 381.07" style="fill:#fff"></polygon><polygon points="355.84 370.91 355.84 373.27 337.15 391.97 337.15 389.61 355.84 370.91" style="fill:#fff"></polygon></g><rect x="360.16" y="384.9" width="18.69" height="46.31" style="fill:#407BFF"></rect><g style="opacity:0.4"><polygon points="378.85 398.55 378.85 412.3 360.16 430.98 360.16 416.2 378.85 398.55" style="fill:#fff"></polygon><polygon points="378.85 392.07 378.85 394.71 360.16 413.41 360.16 410.75 378.85 392.07" style="fill:#fff"></polygon></g><rect x="314.13" y="330.06" width="18.69" height="101.15" style="fill:#407BFF"></rect><g style="opacity:0.4"><polygon points="332.83 349.05 332.83 362.87 314.13 381.56 314.13 366.7 332.83 349.05" style="fill:#fff"></polygon><polygon points="332.83 341.45 332.83 344.03 314.13 362.74 314.13 360.14 332.83 341.45" style="fill:#fff"></polygon></g><path d="M325.75,338.52a2.68,2.68,0,1,1-.85-3.69A2.69,2.69,0,0,1,325.75,338.52Z" style="fill:#263238"></path><path d="M348.76,371a2.67,2.67,0,1,1-.85-3.69A2.67,2.67,0,0,1,348.76,371Z" style="fill:#263238"></path><path d="M371.77,393a2.67,2.67,0,1,1-.85-3.68A2.66,2.66,0,0,1,371.77,393Z" style="fill:#263238"></path><polyline points="369.51 391.56 345.79 413.65 346.49 369.58 323.48 383.81 323.48 337.1" style="fill:none;stroke:#263238;stroke-miterlimit:10"></polyline></g><g id="freepik--Character--inject-20"><path d="M155.42,214.28s-6.37,9.4-7.86,10.37-21.6-2.85-31.47-8L111,210.27l-7.68-2.7-4.41,8.76,6.09,4s3.9,4.49,8.27,3.24c0,0,15.72,10.26,27,12.88s13.89-.41,17.18-3.09,12-15.39,12-15.39Z" style="fill:#b55b52"></path><path d="M215.87,174.74s25.16-7.68,33.68-14.05c0,0,12.93-15.82,15.08-32.71l-2.91-8.79,1.54-10,9.58,2.14s5,10.52-1.09,18.76c0,0-1.63,24.48-12,37.24s-42.81,21.29-42.81,21.29Z" style="fill:#b55b52"></path><path d="M224.89,267.19l-2.06-74L239,185.46l-10.39-18.54s-12.61,3.7-23.53,3.7c-14.51,0-29.11,11-37,14.12s-16.65,29.95-16.65,29.95l18.24,9.77,3.42-10.06s4.91,37.18,4.93,53.49Z" style="fill:#407BFF"></path><path d="M224.89,267.19l-2.06-74L239,185.46l-10.39-18.54s-12.61,3.7-23.53,3.7c-14.51,0-29.11,11-37,14.12s-16.65,29.95-16.65,29.95l18.24,9.77,3.42-10.06s4.91,37.18,4.93,53.49Z" style="fill:#fff;opacity:0.1"></path><path d="M188,163.87s-12.63,1.32-14.92-8.73c0,0-7.54-3-2.18-10.44,0,0-6.94-10.33,1.92-13.4a19.84,19.84,0,0,1,13.86-11.72c7.17-1.76,5.14,2.09,5.14,2.09s14.87-5.75,17,.66-9.45,9.25-9.45,9.25Z" style="fill:#263238"></path><path d="M195.86,162a14.89,14.89,0,0,0,.22,1.79c.51,3,2.57,7.78,7.57,9.36,0,0,.69,5.34-7.57,4.42s-12.19-2.39-12.19-2.39a47.84,47.84,0,0,0-.24-19.54s-4.66.78-7.29-1.88-1.68-9.39,6.55-5.58c0,0,1.78-9.81-4-12.76,0,0,11.32,1.64,20.37-3.87,0,0,7.81,10,6.72,19.55S195.86,162,195.86,162Z" style="fill:#b55b52"></path><path d="M197.87,150.47s-2.94,1.91-6.29-.85" style="fill:none;stroke:#263238;stroke-linecap:round;stroke-linejoin:round;stroke-width:0.7223140597343445px"></path><path d="M191,142.22c.18.73.69,1.23,1.14,1.12s.67-.79.49-1.52-.69-1.24-1.14-1.13S190.77,141.49,191,142.22Z" style="fill:#263238"></path><path d="M198.85,139.29c.18.74.69,1.24,1.14,1.13s.67-.8.49-1.53-.69-1.23-1.14-1.12S198.67,138.56,198.85,139.29Z" style="fill:#263238"></path><path d="M190.48,136.91a3.47,3.47,0,0,0-2.53,3" style="fill:none;stroke:#263238;stroke-linecap:round;stroke-linejoin:round;stroke-width:0.963085412979126px"></path><path d="M201.15,134.37s-1.78-1.33-3.35-.19" style="fill:none;stroke:#263238;stroke-linecap:round;stroke-linejoin:round;stroke-width:0.963085412979126px"></path><path d="M199.08,146.75l-1.86-6.13,5.24,4.36A3.08,3.08,0,0,1,199.08,146.75Z" style="fill:#a02724"></path><path d="M196.08,163.82a5.38,5.38,0,0,1-4.31-1.08c1.53-.16,4.09-.71,4.09-.71A14.89,14.89,0,0,0,196.08,163.82Z" style="opacity:0.19"></path><path d="M200.52,177.71l-.05,9.58-4.7.43s-3.59-3.52-3.82-5.36S197.12,175.69,200.52,177.71Z" style="fill:#263238"></path><path d="M199.79,186.31s7.06,26,10.45,39L206.38,233l-6.5-6.49-3.51-39.77Z" style="fill:#263238"></path><path d="M232.08,422l-14.32,2.25s-4.41-54.71-5.54-75.23c-.19-3.55-.55-7.33-1-11.17h0c-2.22-18.42-6.76-38.11-6.76-38.11s-1.48,32.85-5.58,58-21.45,62-21.45,62l-13.62-6.27c10.64-30.44,13.08-68.35,14-82.53s-.12-72.5-.12-72.5l46.9-2.05c4.53,22.08,10.42,72.55,11.07,90S232.08,422,232.08,422Z" style="fill:#263238"></path><polygon points="229.54 426.16 230.3 437.66 221.83 439.57 220.94 426.71 229.54 426.16" style="fill:#b55b52"></polygon><polygon points="234.36 420.12 216.23 423.63 217.12 429.26 234.02 426.19 234.36 420.12" style="fill:#407BFF"></polygon><polygon points="174.5 421.31 169.5 431.97 161.45 428.86 166.82 417.75 174.5 421.31" style="fill:#b55b52"></polygon><path d="M162,429l9.44,3.72a1.8,1.8,0,0,1,.95.85c.72,1.39,2.69,4.8,5.05,6.1,3,1.66,4.59,2.82,3.51,4.54s-2.72,1.13-4.4.69c-1.37-.36-14.28-5.77-19-7.77a1.61,1.61,0,0,1-.73-2.35l3.27-5.14A1.62,1.62,0,0,1,162,429Z" style="fill:#263238"></path><path d="M221.65,439.13l10-2a1.82,1.82,0,0,1,1.25.21c1.36.77,4.85,2.59,7.54,2.42,3.41-.22,5.38-.1,5.4,1.93s-1.68,2.42-3.34,2.95c-1.34.43-15.13,2.83-20.22,3.71a1.6,1.6,0,0,1-1.88-1.58l0-6.1A1.62,1.62,0,0,1,221.65,439.13Z" style="fill:#263238"></path><polygon points="182.51 417.41 163.08 413.24 161.37 418.87 179 424.05 182.51 417.41" style="fill:#407BFF"></polygon><path d="M211.21,338c-2.22-18.41-6.76-38.11-6.76-38.11l-1.92-24.51S213.37,317.72,211.21,338Z" style="opacity:0.61"></path><path d="M184.39,172.26a37.36,37.36,0,0,0,11.69,5.34L193,186.67s-7.53-3.46-11.35-6.59Z" style="fill:#fff"></path><path d="M196.08,177.6l5.07,7.86a30.82,30.82,0,0,0,4.95-10.7l-5.7-4.14S198,175.86,196.08,177.6Z" style="fill:#fff"></path></g></svg>