<?xml version="1.0"?>
<svg xmlns="http://www.w3.org/2000/svg" height="512px" viewBox="0 0 383 384" width="512px" class=""><g><path d="m336.472656 0h-113.136718c-12.816407 0-24.871094 4.992188-33.945313 14.054688l-174.863281 174.867187c-18.703125 18.71875-18.703125 49.167969 0 67.878906l113.136718 113.136719c9.070313 9.070312 21.128907 14.0625 33.945313 14.0625 12.824219 0 24.878906-4.992188 33.941406-14.0625l174.863281-174.867188c9.066407-9.0625 14.058594-21.117187 14.058594-33.933593v-113.136719c0-26.472656-21.527344-48-48-48zm16 161.136719c0 4.269531-1.664062 8.296875-4.679687 11.320312l-174.871094 174.855469c-6.042969 6.046875-16.585937 6.046875-22.632813 0l-113.128906-113.136719c-6.238281-6.238281-6.238281-16.390625 0-22.632812l174.855469-174.855469c3.023437-3.023438 7.046875-4.6875 11.320313-4.6875h113.136718c8.824219 0 16 7.175781 16 16zm0 0" data-original="#000000" class="active-path" data-old_color="#000000" fill="#FFFFFF"/><path d="m311.328125 71.015625c-8.984375-9.503906-21.128906-14.832031-34.191406-15.007813-12.96875-.253906-25.351563 4.808594-34.601563 14.046876-18.503906 18.503906-18.917968 47.898437-.933594 66.914062l4.015626 4.246094c8.984374 9.496094 21.125 14.824218 34.199218 15h.6875c12.816406 0 24.832032-4.976563 33.910156-14.054688 18.507813-18.503906 18.914063-47.894531.929688-66.902344zm-19.535156 48.527344c-3.082031 3.082031-7.167969 4.769531-11.527344 4.679687-4.355469-.054687-8.402344-1.832031-11.394531-5l-4.015625-4.253906c-5.992188-6.335938-5.855469-16.128906.3125-22.296875 3.015625-3.015625 7.015625-4.671875 11.289062-4.671875h.230469c4.351562.0625 8.402344 1.832031 11.390625 5l4.019531 4.257812c5.992188 6.328126 5.863282 16.117188-.304687 22.285157zm0 0" data-original="#000000" class="active-path" data-old_color="#000000" fill="#FFFFFF"/><path d="m140.054688 173.375 7.625 2.425781c1.617187.511719 3.25.757813 4.855468.757813 6.785156 0 13.074219-4.34375 15.242188-11.152344 2.679687-8.414062-1.976563-17.414062-10.394532-20.09375l-7.621093-2.425781c-8.417969-2.679688-17.417969 1.96875-20.097657 10.394531-2.679687 8.414062 1.976563 17.414062 10.390626 20.09375zm0 0" data-original="#000000" class="active-path" data-old_color="#000000" fill="#FFFFFF"/><path d="m196.878906 258.617188-7.621094-2.425782c-8.433593-2.640625-17.425781 1.984375-20.097656 10.410156-2.671875 8.421876 1.984375 17.414063 10.398438 20.09375l7.625 2.425782c1.617187.503906 3.25.757812 4.847656.757812 6.785156 0 13.082031-4.351562 15.25-11.167968 2.679688-8.421876-1.976562-17.414063-10.402344-20.09375zm0 0" data-original="#000000" class="active-path" data-old_color="#000000" fill="#FFFFFF"/><path d="m201.3125 181-80.390625 41.585938c-7.851563 4.0625-10.921875 13.710937-6.859375 21.558593 2.839844 5.503907 8.433594 8.648438 14.226562 8.648438 2.480469 0 4.992188-.570313 7.335938-1.792969l80.390625-41.574219c7.847656-4.066406 10.921875-13.722656 6.855469-21.570312-4.054688-7.847657-13.695313-10.910157-21.558594-6.855469zm0 0" data-original="#000000" class="active-path" data-old_color="#000000" fill="#FFFFFF"/></g> </svg>
