<svg id="Layer_5" enable-background="new 0 0 64 64" height="512" viewBox="0 0 64 64" width="512" xmlns="http://www.w3.org/2000/svg" xmlns:xlink="http://www.w3.org/1999/xlink"><linearGradient id="SVGID_1_" gradientUnits="userSpaceOnUse" x1="31.935" x2="31.935" y1="62.591" y2="1"><stop offset="0" stop-color="#9f2fff"/><stop offset="1" stop-color="#0bb1d3"/></linearGradient><path d="m17 26h-2c0-4.411 3.589-8 8-8v2c-3.309 0-6 2.691-6 6zm46-22v20c0 1.654-1.346 3-3 3h-15.092c-.289 1.731-1.305 3.232-2.787 4.124.996 1.798 1.01 4.01-.043 5.832l-.051.088c-1.052 1.822-2.974 2.917-5.029 2.954-.011.612-.127 1.208-.316 1.777l8.449 13.788-9.403-2.351-2.345 9.378-8.835-14.786c-.482.127-.984.196-1.498.196-.55 0-1.084-.071-1.591-.205l-8.841 14.796-2.345-9.378-9.403 2.351 8.449-13.788c-.19-.569-.305-1.165-.316-1.777-2.055-.037-3.977-1.132-5.029-2.954l-.051-.088c-1.052-1.823-1.039-4.034-.043-5.832-1.763-1.061-2.88-2.97-2.88-5.075v-.101c0-2.104 1.117-4.014 2.879-5.073-.995-1.798-1.009-4.01.043-5.832l.051-.088c1.053-1.822 2.975-2.917 5.029-2.954.037-2.056 1.132-3.978 2.954-5.029l.088-.051c1.822-1.052 4.033-1.041 5.832-.043 1.06-1.762 2.969-2.879 5.074-2.879 2.188 0 4.111 1.117 5.173 2.879 1.496-.827 3.272-.966 4.877-.389v-2.49c0-1.654 1.346-3 3-3h24c1.654 0 3 1.346 3 3zm-12 1v2h2v-4h-10v4h2v-2h2v2h2v-2zm-18 11.223c-2.624-2.681-6.242-4.223-10-4.223-7.72 0-14 6.28-14 14s6.28 14 14 14c7.382 0 13.433-5.747 13.949-13h-.949c-.367 0-.715-.076-1.041-.197-.416 6.243-5.613 11.197-11.959 11.197-6.617 0-12-5.383-12-12s5.383-12 12-12c4.172 0 7.849 2.142 10 5.381zm-10-.223c-5.514 0-10 4.486-10 10s4.486 10 10 10 10-4.486 10-10-4.486-10-10-10zm-3.369 30.954c-.705-.477-1.309-1.094-1.754-1.833-1.798.995-4.011 1.008-5.833-.043l-.088-.051c-.585-.338-1.085-.773-1.51-1.266l-5.316 8.675 6.597-1.649 1.655 6.622zm15.923-3.192c-.424.493-.925.928-1.51 1.266l-.088.051c-1.823 1.051-4.034 1.038-5.832.043-.447.743-1.051 1.362-1.751 1.84l6.244 10.448 1.655-6.622 6.597 1.649zm7.316-16.762h-3.921c-.52 8.356-7.464 15-15.949 15-8.822 0-16-7.178-16-16s7.178-16 16-16c3.649 0 7.178 1.28 10 3.539v-4.859l-.044-.025c-1.456-.842-3.294-.649-4.573.475l-1.129.995-.48-1.426c-.544-1.615-2.04-2.699-3.724-2.699-1.784 0-3.28 1.084-3.823 2.698l-.48 1.426-1.129-.995c-1.277-1.126-3.114-1.317-4.573-.475l-.088.051c-1.458.841-2.212 2.528-1.875 4.198l.297 1.475-1.475-.297c-1.665-.338-3.356.417-4.198 1.875l-.051.088c-.842 1.458-.65 3.296.475 4.573l.995 1.129-1.426.48c-1.615.544-2.699 2.04-2.699 3.723v.101c0 1.685 1.084 3.181 2.698 3.724l1.426.48-.995 1.129c-1.126 1.277-1.316 3.115-.475 4.573l.051.088c.842 1.458 2.526 2.213 4.198 1.875l1.475-.297-.297 1.475c-.336 1.669.417 3.356 1.875 4.198l.088.051c1.459.844 3.297.651 4.573-.475l1.129-.995.48 1.426c.544 1.614 2.04 2.698 3.724 2.698 1.784 0 3.28-1.084 3.823-2.698l.48-1.426 1.129.995c1.276 1.125 3.116 1.315 4.573.475l.088-.051c1.458-.842 2.211-2.529 1.875-4.198l-.297-1.475 1.475.297c1.676.339 3.356-.418 4.198-1.875l.051-.088c.842-1.458.651-3.296-.475-4.573l-.995-1.129 1.426-.48c1.302-.438 2.247-1.499 2.569-2.774zm18.13-23c0-.552-.448-1-1-1h-5v6h-14v-6h-5c-.552 0-1 .448-1 1v20c0 .552.448 1 1 1h24c.552 0 1-.448 1-1zm-12 19h2v-2h-2zm8 0h2v-2h-2zm-4 0h2v-2h-2zm-4-4h10v-2h-10zm-28 11.586-2.293-2.293-1.414 1.414 3.707 3.707 9.707-9.707-1.414-1.414z" fill="url(#SVGID_1_)"/></svg>